<svg id="Ebene_1" data-name="Ebene 1" xmlns="http://www.w3.org/2000/svg" width="85mm" height="35mm" viewBox="0 0 240.94 99.21">
  <defs>
    <style>
      .cls-1 {
        fill: #1d1d1b;
      }
    </style>
  </defs>
  <g>
    <path class="cls-1" d="M128.17,22.81l-1-4.83h-.06l-1,4.83Zm-.26-7.31,2.38,10.15h-1.46l-.37-1.6h-2.7l-.37,1.6h-1.46l2.41-10.15Z"/>
    <path class="cls-1" d="M136.49,20.8a1.24,1.24,0,0,0,1.22-1.28V18a1.24,1.24,0,0,0-1.22-1.28h-1.37V20.8Zm1.07,1L139,25.65h-1.55l-1.37-3.6h-1v3.6h-1.43V15.5h2.8a2.65,2.65,0,0,1,1.88.74,2.36,2.36,0,0,1,.77,1.79v1.49a2.53,2.53,0,0,1-1.58,2.32"/>
    <path class="cls-1" d="M147,22.25a1.17,1.17,0,0,0-1.16-1.17h-1.56V24.4h1.52a1.09,1.09,0,0,0,.83-.38,1.16,1.16,0,0,0,.37-.84Zm-.14-4.34a1.17,1.17,0,0,0-1.17-1.16h-1.41v3.08h1.41a1.19,1.19,0,0,0,1.17-1.18Zm1.57,5.27a2.35,2.35,0,0,1-2.54,2.47h-3V15.5h2.89A2.35,2.35,0,0,1,148.29,18v.67a1.75,1.75,0,0,1-1.19,1.78,1.75,1.75,0,0,1,.91.64,1.88,1.88,0,0,1,.43,1.21Z"/>
    <path class="cls-1" d="M156.22,15.5h1.43v7.75a2.56,2.56,0,0,1-.78,1.89,2.74,2.74,0,0,1-2,.77,2.7,2.7,0,0,1-2-.77,2.57,2.57,0,0,1-.79-1.89V15.5h1.43v7.78a1.35,1.35,0,1,0,2.7,0Z"/>
    <path class="cls-1" d="M164.25,20.8a1.24,1.24,0,0,0,1.22-1.28V18a1.24,1.24,0,0,0-1.22-1.28h-1.37V20.8Zm1.07,1,1.44,3.81h-1.55l-1.37-3.6h-1v3.6h-1.43V15.5h2.8a2.63,2.63,0,0,1,1.87.74A2.37,2.37,0,0,1,166.9,18v1.49a2.55,2.55,0,0,1-1.58,2.32"/>
    <path class="cls-1" d="M174.78,18a1.44,1.44,0,1,0-2.88,0v5.21a1.44,1.44,0,1,0,2.88,0V21.23h-1.44V20h2.87v3.17a2.69,2.69,0,0,1-.8,2,2.82,2.82,0,0,1-2.07.79,2.86,2.86,0,0,1-2.08-.79,2.72,2.72,0,0,1-.79-2V18a2.71,2.71,0,0,1,.79-2,2.86,2.86,0,0,1,2.08-.79,2.82,2.82,0,0,1,2.07.79,2.68,2.68,0,0,1,.8,2v.55h-1.43Z"/>
    <path class="cls-1" d="M190,23.21a2.62,2.62,0,0,1-.79,1.93,2.74,2.74,0,0,1-2,.77,2.78,2.78,0,0,1-2-.77,2.61,2.61,0,0,1-.77-1.93V18a2.61,2.61,0,0,1,.77-1.93,2.79,2.79,0,0,1,2-.79,2.75,2.75,0,0,1,2,.79A2.62,2.62,0,0,1,190,18v.93H188.6v-1a1.4,1.4,0,1,0-2.79,0v5.32a1.4,1.4,0,1,0,2.79,0v-1H190Z"/>
    <polygon class="cls-1" points="198.63 24.4 198.63 25.65 193.57 25.65 193.57 15.5 198.63 15.5 198.63 16.75 195 16.75 195 19.96 198.08 19.96 198.08 21.21 195 21.21 195 24.4 198.63 24.4"/>
    <polygon class="cls-1" points="205.94 25.65 203.64 18.83 203.58 18.83 203.59 25.65 202.16 25.65 202.16 15.5 203.75 15.5 206.06 22.31 206.12 22.31 206.11 15.5 207.53 15.5 207.53 25.65 205.94 25.65"/>
    <polygon class="cls-1" points="214.39 16.75 214.39 25.65 212.96 25.65 212.96 16.75 211.07 16.75 211.07 15.5 216.28 15.5 216.28 16.75 214.39 16.75"/>
    <polygon class="cls-1" points="224.87 24.4 224.87 25.65 219.81 25.65 219.81 15.5 224.87 15.5 224.87 16.75 221.24 16.75 221.24 19.96 224.32 19.96 224.32 21.21 221.24 21.21 221.24 24.4 224.87 24.4"/>
    <path class="cls-1" d="M231.21,20.8a1.24,1.24,0,0,0,1.22-1.28V18a1.24,1.24,0,0,0-1.22-1.28h-1.37V20.8Zm1.07,1,1.44,3.81h-1.54l-1.37-3.6h-1v3.6h-1.43V15.5h2.8a2.63,2.63,0,0,1,1.87.74,2.37,2.37,0,0,1,.78,1.79v1.49a2.55,2.55,0,0,1-1.58,2.32"/>
    <polygon class="cls-1" points="115.05 36.11 115.05 39.32 117.98 39.32 117.98 40.57 115.05 40.57 115.05 45.01 113.62 45.01 113.62 34.86 118.53 34.86 118.53 36.11 115.05 36.11"/>
    <path class="cls-1" d="M126.08,37.37a1.48,1.48,0,1,0-3,0v5.14a1.48,1.48,0,1,0,3,0Zm1.42,5.11a2.69,2.69,0,0,1-.81,2,3.15,3.15,0,0,1-4.17,0,2.7,2.7,0,0,1-.82-2V37.4a2.66,2.66,0,0,1,.82-2,3.09,3.09,0,0,1,4.17,0,2.65,2.65,0,0,1,.81,2Z"/>
    <path class="cls-1" d="M134,40.16a1.24,1.24,0,0,0,1.22-1.28V37.39A1.24,1.24,0,0,0,134,36.11h-1.37v4Zm1.07,1L136.52,45H135l-1.37-3.6h-1V45h-1.43V34.86H134a2.63,2.63,0,0,1,1.87.74,2.37,2.37,0,0,1,.78,1.79v1.49a2.55,2.55,0,0,1-1.58,2.32"/>
    <path class="cls-1" d="M147.68,43.76h1.4a1.42,1.42,0,0,0,1.39-1.43V37.57a1.44,1.44,0,0,0-1.39-1.46h-1.4ZM146.26,45V34.86h2.82a2.65,2.65,0,0,1,2,.82,2.83,2.83,0,0,1,.79,2v4.52a2.78,2.78,0,0,1-.79,2,2.68,2.68,0,0,1-2,.81Z"/>
    <rect class="cls-1" x="155.62" y="34.86" width="1.43" height="10.15"/>
    <path class="cls-1" d="M165.08,37.33a1.45,1.45,0,1,0-2.89,0v5.21a1.45,1.45,0,1,0,2.89,0V40.59h-1.44V39.34h2.87v3.17a2.65,2.65,0,0,1-.81,2,2.81,2.81,0,0,1-2.06.79,2.9,2.9,0,0,1-2.09-.79,2.7,2.7,0,0,1-.78-2V37.36a2.7,2.7,0,0,1,.78-2,2.9,2.9,0,0,1,2.09-.79,2.81,2.81,0,0,1,2.06.79,2.65,2.65,0,0,1,.81,2v.55h-1.43Z"/>
    <rect class="cls-1" x="170.23" y="34.86" width="1.43" height="10.15"/>
    <polygon class="cls-1" points="178.31 36.11 178.31 45.01 176.88 45.01 176.88 36.11 174.99 36.11 174.99 34.86 180.2 34.86 180.2 36.11 178.31 36.11"/>
    <path class="cls-1" d="M187.09,42.17l-1-4.83H186l-1,4.83Zm-.27-7.31L189.2,45h-1.46l-.37-1.59h-2.69L184.31,45h-1.46l2.41-10.15Z"/>
    <polygon class="cls-1" points="197.4 45.01 192.61 45.01 192.61 34.86 194.04 34.86 194.04 43.76 197.4 43.76 197.4 45.01"/>
    <path class="cls-1" d="M119.13,61.93a2.62,2.62,0,0,1-.79,1.93,3.07,3.07,0,0,1-4.09,0,2.58,2.58,0,0,1-.78-1.93V56.68a2.59,2.59,0,0,1,.78-1.94,3,3,0,0,1,4.09,0,2.63,2.63,0,0,1,.79,1.94v.92H117.7v-1a1.4,1.4,0,1,0-2.8,0V62a1.4,1.4,0,1,0,2.8,0V61h1.43Z"/>
    <path class="cls-1" d="M126.77,54.22h1.43V62a2.56,2.56,0,0,1-.78,1.89,2.74,2.74,0,0,1-2,.78,2.71,2.71,0,0,1-2-.78,2.57,2.57,0,0,1-.79-1.89V54.22h1.43V62a1.35,1.35,0,1,0,2.7,0Z"/>
    <polygon class="cls-1" points="136.78 64.37 131.98 64.37 131.98 54.22 133.41 54.22 133.41 63.12 136.78 63.12 136.78 64.37"/>
    <polygon class="cls-1" points="142.06 55.47 142.06 64.37 140.63 64.37 140.63 55.47 138.74 55.47 138.74 54.22 143.95 54.22 143.95 55.47 142.06 55.47"/>
    <path class="cls-1" d="M151.42,54.22h1.43V62a2.57,2.57,0,0,1-.79,1.89,2.94,2.94,0,0,1-4,0,2.57,2.57,0,0,1-.79-1.89V54.22h1.43V62a1.36,1.36,0,1,0,2.71,0Z"/>
    <path class="cls-1" d="M159.43,59.52a1.24,1.24,0,0,0,1.22-1.28V56.75a1.24,1.24,0,0,0-1.22-1.28h-1.37v4.05Zm1.07,1,1.44,3.81h-1.55L159,60.77h-1v3.6h-1.43V54.22h2.8a2.61,2.61,0,0,1,1.87.75,2.34,2.34,0,0,1,.77,1.78v1.49a2.53,2.53,0,0,1-1.57,2.32"/>
    <polygon class="cls-1" points="170.85 63.12 170.85 64.37 165.79 64.37 165.79 54.22 170.85 54.22 170.85 55.47 167.22 55.47 167.22 58.69 170.3 58.69 170.3 59.94 167.22 59.94 167.22 63.12 170.85 63.12"/>
    <path class="cls-1" d="M184,61.53l-1-4.82h-.06l-1,4.82Zm-.27-7.31,2.38,10.15h-1.46l-.37-1.59h-2.69l-.38,1.59h-1.46l2.41-10.15Z"/>
    <polygon class="cls-1" points="193.27 64.37 190.96 57.55 190.9 57.55 190.91 64.37 189.49 64.37 189.49 54.22 191.08 54.22 193.38 61.04 193.44 61.04 193.43 54.22 194.86 54.22 194.86 64.37 193.27 64.37"/>
    <path class="cls-1" d="M200.16,63.12h1.4a1.41,1.41,0,0,0,1.38-1.43V56.93a1.44,1.44,0,0,0-1.38-1.46h-1.4Zm-1.43,1.25V54.22h2.83a2.65,2.65,0,0,1,2,.82,2.83,2.83,0,0,1,.79,2v4.52a2.78,2.78,0,0,1-.79,2,2.67,2.67,0,0,1-2,.81Z"/>
    <rect class="cls-1" x="113.62" y="73.58" width="1.43" height="10.15"/>
    <polygon class="cls-1" points="122.62 83.73 120.32 76.92 120.26 76.92 120.27 83.73 118.84 83.73 118.84 73.58 120.44 73.58 122.74 80.4 122.8 80.4 122.79 73.58 124.21 73.58 124.21 83.73 122.62 83.73"/>
    <polygon class="cls-1" points="129.44 74.83 129.44 78.05 132.37 78.05 132.37 79.3 129.44 79.3 129.44 83.73 128.01 83.73 128.01 73.58 132.92 73.58 132.92 74.83 129.44 74.83"/>
    <path class="cls-1" d="M139.17,78.88a1.24,1.24,0,0,0,1.22-1.28V76.11a1.24,1.24,0,0,0-1.22-1.28H137.8v4Zm1.07,1,1.44,3.81h-1.55l-1.37-3.6h-1v3.6h-1.43V73.58h2.8a2.64,2.64,0,0,1,1.87.75,2.34,2.34,0,0,1,.77,1.78V77.6a2.53,2.53,0,0,1-1.57,2.32"/>
    <path class="cls-1" d="M149.73,80.89l-1-4.82h-.06l-1,4.82Zm-.26-7.31,2.38,10.15h-1.46L150,82.14h-2.7L147,83.73h-1.46l2.41-10.15Z"/>
    <path class="cls-1" d="M159.71,75.89a1.31,1.31,0,1,0-2.62,0v.39a1.47,1.47,0,0,0,1.08,1.39c.32.11.64.23,1,.39A3,3,0,0,1,161,79.43a3.09,3.09,0,0,1,.31,1.46v.37a2.63,2.63,0,0,1-.8,2,3.14,3.14,0,0,1-4.14,0,2.59,2.59,0,0,1-.8-2V80.4H157v.89a1.45,1.45,0,1,0,2.89,0v-.4a1.6,1.6,0,0,0-1.08-1.55l-1-.4A3,3,0,0,1,156,77.66a2.76,2.76,0,0,1-.31-1.38V75.9a2.44,2.44,0,0,1,.76-1.84,3,3,0,0,1,3.94,0,2.47,2.47,0,0,1,.76,1.86v.71h-1.41Z"/>
    <polygon class="cls-1" points="168.27 74.83 168.27 83.73 166.84 83.73 166.84 74.83 164.95 74.83 164.95 73.58 170.16 73.58 170.16 74.83 168.27 74.83"/>
    <path class="cls-1" d="M176.63,78.88a1.24,1.24,0,0,0,1.22-1.28V76.11a1.24,1.24,0,0,0-1.22-1.28h-1.36v4Zm1.08,1,1.44,3.81H177.6l-1.37-3.6h-1v3.6h-1.43V73.58h2.79a2.66,2.66,0,0,1,1.88.75,2.34,2.34,0,0,1,.77,1.78V77.6a2.53,2.53,0,0,1-1.57,2.32"/>
    <path class="cls-1" d="M187.1,73.58h1.43v7.75a2.57,2.57,0,0,1-.79,1.89,2.94,2.94,0,0,1-4,0,2.57,2.57,0,0,1-.79-1.89V73.58h1.43v7.78a1.36,1.36,0,1,0,2.71,0Z"/>
    <path class="cls-1" d="M197.86,81.29a2.62,2.62,0,0,1-.79,1.93,3.07,3.07,0,0,1-4.09,0,2.61,2.61,0,0,1-.77-1.93V76A2.61,2.61,0,0,1,193,74.1a3,3,0,0,1,4.09,0,2.63,2.63,0,0,1,.79,1.94V77h-1.43V76a1.4,1.4,0,1,0-2.8,0v5.31a1.4,1.4,0,1,0,2.8,0v-1h1.43Z"/>
    <polygon class="cls-1" points="204.86 74.83 204.86 83.73 203.43 83.73 203.43 74.83 201.54 74.83 201.54 73.58 206.75 73.58 206.75 74.83 204.86 74.83"/>
    <path class="cls-1" d="M214.56,73.58H216v7.75a2.53,2.53,0,0,1-.79,1.89,2.93,2.93,0,0,1-4,0,2.57,2.57,0,0,1-.79-1.89V73.58h1.43v7.78a1.35,1.35,0,1,0,2.7,0Z"/>
    <path class="cls-1" d="M222.47,78.88a1.24,1.24,0,0,0,1.22-1.28V76.11a1.24,1.24,0,0,0-1.22-1.28H221.1v4Zm1.07,1L225,83.73h-1.54l-1.37-3.6h-1v3.6h-1.43V73.58h2.8a2.68,2.68,0,0,1,1.88.75,2.34,2.34,0,0,1,.77,1.78V77.6a2.54,2.54,0,0,1-1.58,2.32"/>
    <polygon class="cls-1" points="233.86 82.48 233.86 83.73 228.8 83.73 228.8 73.58 233.86 73.58 233.86 74.83 230.22 74.83 230.22 78.05 233.31 78.05 233.31 79.3 230.22 79.3 230.22 82.48 233.86 82.48"/>
    <polygon class="cls-1" points="115.08 18.92 114.99 18.92 114.99 25.65 113.62 25.65 113.62 15.5 115.02 15.5 117.04 20.06 119.06 15.5 120.46 15.5 120.46 25.65 119.09 25.65 119.09 18.92 119.01 18.92 117.67 22.12 116.41 22.12 115.08 18.92"/>
    <path class="cls-1" d="M18.57,55.55V43.66h3.31a3.08,3.08,0,0,1,2.37,1A3.26,3.26,0,0,1,25.18,47v5.3a3.24,3.24,0,0,1-.93,2.34,3.13,3.13,0,0,1-2.37.94Zm1.67-1.46h1.64a1.65,1.65,0,0,0,1.62-1.68V46.83a1.68,1.68,0,0,0-1.62-1.71H20.24Z"/>
    <path class="cls-1" d="M53.37,52.69A3.08,3.08,0,0,1,52.45,55a3.62,3.62,0,0,1-4.8,0,3.07,3.07,0,0,1-.91-2.27V46.54a3.07,3.07,0,0,1,.91-2.27,3.56,3.56,0,0,1,4.8,0,3.08,3.08,0,0,1,.92,2.27v1.08H51.7V46.5a1.64,1.64,0,1,0-3.28,0v6.23a1.64,1.64,0,1,0,3.28,0V51.59h1.67Z"/>
    <rect class="cls-1" x="77.4" y="71.84" width="1.68" height="11.9"/>
    <g>
      <path class="cls-1" d="M81.56,24.51a3.08,3.08,0,0,1-.93,2.27,3.2,3.2,0,0,1-2.39.9,3.26,3.26,0,0,1-2.41-.9,3.06,3.06,0,0,1-.9-2.27V18.35a3.06,3.06,0,0,1,.9-2.27,3.27,3.27,0,0,1,2.41-.92,3.21,3.21,0,0,1,2.39.92,3.08,3.08,0,0,1,.93,2.27v1.08H79.88V18.32a1.64,1.64,0,1,0-3.28,0v6.22a1.64,1.64,0,1,0,3.28,0V23.41h1.68Z"/>
      <g>
        <path class="cls-1" d="M93,36.21V6.63H35.27V34.82H7.08V64.39H63.45V92.58H93V63H64.85V36.21ZM64.85,8H91.64V34.82H64.85ZM36.66,8H63.45V34.82H36.66ZM35.27,63H8.48V36.21H35.27Zm56.37,1.39V91.18H64.85V64.39ZM63.45,63H36.66V36.21H63.45Z"/>
        <polygon class="cls-1" points="47.75 19.48 47.65 19.48 47.65 27.37 46.05 27.37 46.05 15.47 47.69 15.47 50.06 20.82 52.42 15.47 54.07 15.47 54.07 27.37 52.46 27.37 52.46 19.48 52.36 19.48 50.79 23.23 49.32 23.23 47.75 19.48"/>
      </g>
    </g>
  </g>
</svg>
